<svg width="512" height="512" viewBox="0 0 512 512" xmlns="http://www.w3.org/2000/svg">
  <defs>
    <clipPath id="fc">
      <path d="M 220 82 L 292 82 L 292 200 L 400 390 Q 412 412, 394 430 Q 380 444, 354 444 L 158 444 Q 132 444, 118 430 Q 100 412, 112 390 L 220 200 Z"/>
    </clipPath>
  </defs>
  <rect width="512" height="512" fill="#1c1c1e"/>
  <rect x="208" y="62" width="96" height="20" rx="10" fill="#e5e5ea"/>
  <path d="M 220 82 L 292 82 L 292 200 L 400 390 Q 412 412, 394 430 Q 380 444, 354 444 L 158 444 Q 132 444, 118 430 Q 100 412, 112 390 L 220 200 Z" fill="#e5e5ea"/>
  <g clip-path="url(#fc)">
    <path d="M 80 310 Q 180 300, 240 340 Q 310 380, 440 370 L 440 480 L 80 480 Z" fill="#8e8e93" opacity="0.5"/>
    <path d="M 80 320 Q 160 305, 230 330 Q 300 355, 440 360 L 440 480 L 80 480 Z" fill="#636366" opacity="0.45"/>
  </g>
</svg>